<?xml version="1.0" encoding="UTF-8"?><svg xmlns="http://www.w3.org/2000/svg" xmlns:xlink="http://www.w3.org/1999/xlink" height="412.9" preserveAspectRatio="xMidYMid meet" version="1.0" viewBox="6.2 6.2 412.9 412.9" width="412.9" zoomAndPan="magnify"><g id="change1_1"><path d="M419.042,212.606c0,114.009-92.427,206.436-206.437,206.436c-114.021,0-206.447-92.427-206.447-206.436 C6.158,98.585,98.584,6.158,212.605,6.158C326.615,6.158,419.042,98.585,419.042,212.606z" fill="#C5D984"/></g><g id="change2_1"><path d="M215.607,339.275c0,0-84.352-57.151-24.808-166.326c39.396-72.229,33.573-120.375,22.618-159.786 c0,0,126.587,67.121,119.29,201.354C325.422,348.766,215.607,339.275,215.607,339.275z" fill="#F5F5F5"/></g><g id="change3_1"><path d="M213.417,13.163c2.537,9.13,4.782,18.719,6.277,28.974c27.706,44.043,42.892,95.522,42.892,148.139 c0,53.008-15.425,104.883-43.537,149.131c18.633,0.269,107.125-4.815,113.657-124.891 C340.004,80.284,213.417,13.163,213.417,13.163z" fill="#97CEB6"/></g><g id="change4_1"><path d="M248.477,37.601c27.509,48.033,42.48,102.935,42.48,158.963c0,47.047-10.571,93.316-30.26,135.398 c31.236-11.792,67.9-41.786,72.009-117.445C337.451,127.034,285.34,68.079,248.477,37.601z" fill="#31B4A7"/></g><g id="change5_1"><path d="M220.259,344.92c-3.115,0-4.929-0.149-5.125-0.166c-0.936-0.081-1.834-0.4-2.611-0.926 c-0.911-0.617-22.464-15.442-36.59-44.362c-13.019-26.652-21.845-70.693,10.038-129.151 c38.086-69.828,33.152-116.089,22.147-155.679c-0.589-2.118,0.14-4.382,1.853-5.759c1.713-1.377,4.082-1.603,6.023-0.573 c1.326,0.704,32.842,17.615,63.861,51.484c18.261,19.939,32.507,41.627,42.343,64.462c12.328,28.622,17.712,59.092,16,90.565 c-2.811,51.807-20.704,89.096-53.18,110.831C259.022,343.042,231.071,344.92,220.259,344.92z M217.534,333.873 c0.688,0.026,1.607,0.048,2.725,0.048c23.567,0,100.928-8.632,106.956-119.702c2.943-54.138-15.721-103.596-55.472-147.001 c-18.771-20.497-37.978-34.648-49.675-42.343c8.876,38.966,9.401,84.997-26.439,150.708 c-23.687,43.429-27.06,83.336-10.027,118.612C196.599,316.971,213.044,330.471,217.534,333.873z" fill="#08857C"/></g><g id="change5_2"><path d="M142.91,408.299c-2.189,0-4.259-1.316-5.115-3.475c-1.119-2.824,0.263-6.021,3.087-7.14 c9.179-3.637,41.26-18.25,68.676-53.56c35.116-45.227,48.934-105.521,41.069-179.208c-0.323-3.02,1.865-5.73,4.885-6.052 c3.017-0.325,5.73,1.865,6.052,4.885c4.444,41.638,2.055,79.782-7.1,113.374c-7.551,27.708-19.737,52.52-36.218,73.747 c-29.126,37.513-63.478,53.144-73.312,57.041C144.27,408.174,143.584,408.299,142.91,408.299z" fill="#08857C"/></g><g id="change5_3"><path d="M76.418 397.138H145.568V408.138H76.418z" fill="#08857C"/></g></svg>