<?xml version="1.0" encoding="UTF-8"?><svg xmlns="http://www.w3.org/2000/svg" xmlns:xlink="http://www.w3.org/1999/xlink" height="165.6" preserveAspectRatio="xMidYMid meet" version="1.1" viewBox="109.7 129.8 205.9 165.6" width="205.9" zoomAndPan="magnify">
 <g id="surface1">
  <path d="m2484.7 1683c0-196.1-159-355.1-355.1-355.1s-355.1 159-355.1 355.1 159 355.1 355.1 355.1 355.1-159 355.1-355.1zm0 0" fill="none" stroke="#231f1f" stroke-linecap="round" stroke-linejoin="round" stroke-miterlimit="10" stroke-width="60" transform="matrix(.1 0 0 -.1 0 425.2)"/>
  <g id="change1_1"><path d="m212.56 251.34c-3.09 0.03-5.73 0.96-7.96 2.41-8.12 5.27-10.87 17.35-10.87 17.35h37.67s-4.48-19.63-18.84-19.76" fill="#fff"/></g>
  <path d="m2125.6 1738.6c-30.9-0.3-57.3-9.6-79.6-24.1-81.2-52.7-108.7-173.5-108.7-173.5h376.7s-44.8 196.3-188.4 197.6zm0 0" fill="none" stroke="#231f1f" stroke-linecap="round" stroke-linejoin="round" stroke-miterlimit="10" stroke-width="60" transform="matrix(.1 0 0 -.1 0 425.2)"/>
  <g id="change1_2"><path d="m221.3 244.7c0 4.74-3.91 9.46-8.74 9.46s-8.74-4.72-8.74-9.46c0-4.75 3.91-8.6 8.74-8.6s8.74 3.85 8.74 8.6" fill="#fff"/></g>
  <path d="m2213 1805c0-47.4-39.1-94.6-87.4-94.6s-87.4 47.2-87.4 94.6c0 47.5 39.1 86 87.4 86s87.4-38.5 87.4-86zm0 0" fill="none" stroke="#231f1f" stroke-linecap="round" stroke-linejoin="round" stroke-miterlimit="10" stroke-width="60" transform="matrix(.1 0 0 -.1 0 425.2)"/>
  <path d="m1836.9 2569c0-196.1-159-355.1-355.1-355.1s-355.1 159-355.1 355.1 159 355.1 355.1 355.1 355.1-159 355.1-355.1zm0 0" fill="none" stroke="#231f1f" stroke-linecap="round" stroke-linejoin="round" stroke-miterlimit="10" stroke-width="60" transform="matrix(.1 0 0 -.1 0 425.2)"/>
  <g id="change1_3"><path d="m147.78 162.74c-3.09 0.03-5.73 0.96-7.96 2.41-8.12 5.27-10.87 17.35-10.87 17.35h37.67s-4.48-19.63-18.84-19.76" fill="#fff"/></g>
  <path d="m1477.8 2624.6c-30.9-0.3-57.3-9.6-79.6-24.1-81.2-52.7-108.7-173.5-108.7-173.5h376.7s-44.8 196.3-188.4 197.6zm0 0" fill="none" stroke="#231f1f" stroke-linecap="round" stroke-linejoin="round" stroke-miterlimit="10" stroke-width="60" transform="matrix(.1 0 0 -.1 0 425.2)"/>
  <g id="change1_4"><path d="m156.52 156.09c0 4.75-3.91 9.46-8.74 9.46s-8.74-4.71-8.74-9.46 3.91-8.59 8.74-8.59 8.74 3.84 8.74 8.59" fill="#fff"/></g>
  <path d="m1565.2 2691.1c0-47.5-39.1-94.6-87.4-94.6s-87.4 47.1-87.4 94.6 39.1 85.9 87.4 85.9 87.4-38.4 87.4-85.9zm0 0" fill="none" stroke="#231f1f" stroke-linecap="round" stroke-linejoin="round" stroke-miterlimit="10" stroke-width="60" transform="matrix(.1 0 0 -.1 0 425.2)"/>
  <path d="m3125.3 2569c0-196.1-159-355.1-355.1-355.1s-355.1 159-355.1 355.1 159 355.1 355.1 355.1 355.1-159 355.1-355.1zm0 0" fill="none" stroke="#231f1f" stroke-linecap="round" stroke-linejoin="round" stroke-miterlimit="10" stroke-width="60" transform="matrix(.1 0 0 -.1 0 425.2)"/>
  <g id="change1_5"><path d="m276.62 162.74c-3.09 0.03-5.73 0.96-7.96 2.41-8.12 5.27-10.87 17.35-10.87 17.35h37.67s-4.48-19.63-18.84-19.76" fill="#fff"/></g>
  <path d="m2766.2 2624.6c-30.9-0.3-57.3-9.6-79.6-24.1-81.2-52.7-108.7-173.5-108.7-173.5h376.7s-44.8 196.3-188.4 197.6zm0 0" fill="none" stroke="#231f1f" stroke-linecap="round" stroke-linejoin="round" stroke-miterlimit="10" stroke-width="60" transform="matrix(.1 0 0 -.1 0 425.2)"/>
  <g id="change1_6"><path d="m285.36 156.09c0 4.75-3.91 9.46-8.74 9.46s-8.74-4.71-8.74-9.46 3.91-8.59 8.74-8.59 8.74 3.84 8.74 8.59" fill="#fff"/></g>
  <path d="m2853.6 2691.1c0-47.5-39.1-94.6-87.4-94.6s-87.4 47.1-87.4 94.6 39.1 85.9 87.4 85.9 87.4-38.4 87.4-85.9zm0 0" fill="none" stroke="#231f1f" stroke-linecap="round" stroke-linejoin="round" stroke-miterlimit="10" stroke-width="60" transform="matrix(.1 0 0 -.1 0 425.2)"/>
  <path d="m1665.6 2253.4l249.4-287.5" fill="none" stroke="#231f1f" stroke-linecap="round" stroke-linejoin="round" stroke-miterlimit="10" stroke-width="60" transform="matrix(.1 0 0 -.1 0 425.2)"/>
  <path d="m2594.1 2256.1l-249.4-287.5" fill="none" stroke="#231f1f" stroke-linecap="round" stroke-linejoin="round" stroke-miterlimit="10" stroke-width="60" transform="matrix(.1 0 0 -.1 0 425.2)"/>
 </g>
</svg>